<svg id="Layer_1" enable-background="new 0 0 512.015 512.015" height="512" viewBox="0 0 512.015 512.015" width="512" xmlns="http://www.w3.org/2000/svg"><g><path d="m277.936 107.332h15.064v-30h-101.202l23.434-23.434-21.213-21.213-44.647 44.647h-143.705v30h15.064l-20.731 41.462v291.741l35.731 71.463h227.204l35.731-71.463v-291.741zm-247.936 314.662v-26.117c30.77-30.341 72.34-49.852 117.747-55.122 42.671-4.951 85.272 3.205 120.92 23.006v58.232h-238.667zm238.667-254.659v93.268l-45.433-22.276c-61.932-30.364-133.849-28.193-193.234 4.578v-75.569h238.667zm-124.378 143.621c-42.355 4.915-81.889 20.727-114.289 45.319v-78.176c53.328-36.358 121.822-41.373 180.027-12.834l58.64 28.751v36.153c-37.868-17.429-81.146-24.23-124.378-19.213zm100.106-203.624 15.002 30.004h-220.126l15.002-30.004zm-190.123 374.666-15.002-30.004h220.126l-15.002 30.004z"/><path d="m54.666 0h30.002v30h-30.002z"/><path d="m107.669 20.001h30.002v30h-30.002z"/></g></svg>